<?xml version="1.0" encoding="utf-8"?>
<svg version="1.1" xmlns:xlink="http://www.w3.org/1999/xlink" width="150px" height="41px" xmlns="http://www.w3.org/2000/svg">
  <defs>
    <filter x="1718px" y="24px" width="150px" height="41px" filterUnits="userSpaceOnUse" id="filter14">
      <feOffset dx="5" dy="5" in="SourceAlpha" result="shadowOffsetInner" />
      <feGaussianBlur stdDeviation="2.5" in="shadowOffsetInner" result="shadowGaussian" />
      <feComposite in2="shadowGaussian" operator="atop" in="SourceAlpha" result="shadowComposite" />
      <feColorMatrix type="matrix" values="0 0 0 0 0  0 0 0 0 0  0 0 0 0 0  0 0 0 0.34901960784313724 0  " in="shadowComposite" />
    </filter>
    <g id="widget15">
      <path d="M 1719 29  A 4 4 0 0 1 1723 25 L 1853 25  A 4 4 0 0 1 1857 29 L 1857 50  A 4 4 0 0 1 1853 54 L 1723 54  A 4 4 0 0 1 1719 50 L 1719 29  Z " fill-rule="nonzero" fill="#ffffff" stroke="none" fill-opacity="0.9921568627450981" />
      <path d="M 1718.5 29  A 4.5 4.5 0 0 1 1723 24.5 L 1853 24.5  A 4.5 4.5 0 0 1 1857.5 29 L 1857.5 50  A 4.5 4.5 0 0 1 1853 54.5 L 1723 54.5  A 4.5 4.5 0 0 1 1718.5 50 L 1718.5 29  Z " stroke-width="1" stroke="#797979" fill="none" stroke-opacity="0.9921568627450981" />
    </g>
  </defs>
  <g transform="matrix(1 0 0 1 -1718 -24 )">
    <use xlink:href="#widget15" filter="url(#filter14)" />
    <use xlink:href="#widget15" />
  </g>
</svg>