<?xml version="1.0" encoding="utf-8"?>
<svg version="1.1" xmlns:xlink="http://www.w3.org/1999/xlink" width="46px" height="39px" xmlns="http://www.w3.org/2000/svg">
  <g transform="matrix(1 0 0 1 -67 -19 )">
    <path d="M 32.03966346153847 29.587332589285715  C 32.81370192307692 28.883649553571423  33.20072115384615 28.002232142857142  33.20072115384615 26.943080357142858  C 33.20072115384615 26.11607142857143  33.15004006410257 25.339843749999996  33.04867788461539 24.61439732142857  C 32.94731570512821 23.888950892857142  32.75380608974359 23.159877232142858  32.46814903846153 22.427176339285715  C 32.18249198717949 21.69447544642857  31.818509615384613 21.070591517857142  31.376201923076923 20.55552455357143  C 30.933894230769234 20.04045758928571  30.344150641025646 19.619698660714285  29.606971153846153 19.293247767857142  C 28.86979166666667 18.966796875  28.03125 18.803571428571427  27.091346153846153 18.803571428571427  C 26.980769230769234 18.861607142857142  26.67207532051282 19.010323660714285  26.165264423076923 19.249720982142858  C 25.658453525641026 19.489118303571427  25.266826923076923 19.666852678571423  24.990384615384613 19.782924107142858  C 24.71394230769231 19.89899553571428  24.34074519230769 20.04408482142857  23.870793269230766 20.218191964285715  C 23.400841346153847 20.392299107142858  22.949318910256412 20.515625  22.51622596153846 20.588169642857142  C 22.083133012820515 20.66071428571428  21.654647435897438 20.696986607142858  21.230769230769234 20.696986607142858  C 20.80689102564103 20.696986607142858  20.378405448717952 20.66071428571428  19.9453125 20.588169642857142  C 19.51221955128205 20.515625  19.060697115384617 20.392299107142858  18.590745192307693 20.218191964285715  C 18.120793269230766 20.04408482142857  17.747596153846153 19.89899553571428  17.471153846153847 19.782924107142858  C 17.19471153846154 19.666852678571423  16.803084935897438 19.489118303571427  16.29627403846154 19.249720982142858  C 15.789463141025644 19.010323660714285  15.480769230769232 18.861607142857142  15.370192307692307 18.803571428571427  C 14.430288461538462 18.803571428571427  13.591746794871796 18.966796875  12.854567307692307 19.293247767857142  C 12.117387820512823 19.619698660714285  11.527644230769232 20.04045758928571  11.085336538461538 20.55552455357143  C 10.643028846153847 21.070591517857142  10.279046474358976 21.69447544642857  9.993389423076923 22.427176339285715  C 9.707732371794872 23.159877232142858  9.514222756410257 23.888950892857142  9.412860576923077 24.61439732142857  C 9.311498397435898 25.339843749999996  9.260817307692308 26.11607142857143  9.260817307692308 26.943080357142858  C 9.260817307692308 28.002232142857142  9.647836538461538 28.883649553571423  10.421875 29.587332589285715  C 11.195913461538462 30.291015624999996  12.145032051282051 30.642857142857142  13.269230769230768 30  L 29.19230769230769 30  C 30.316506410256412 30.642857142857142  31.265625 30.291015624999996  32.03966346153847 29.587332589285715  Z M 26.303485576923077 17.998325892857142  C 27.713341346153847 16.89564732142857  28.418269230769234 15.568080357142854  28.418269230769234 14.015625  C 28.418269230769234 12.448660714285715  27.713341346153847 11.113839285714283  26.303485576923077 10.011160714285715  C 24.89362980769231 8.908482142857139  23.20272435897436 8.357142857142858  21.230769230769234 8.357142857142858  C 19.258814102564106 8.357142857142858  17.567908653846153 8.908482142857139  16.158052884615383 10.011160714285715  C 14.748197115384617 11.113839285714283  14.043269230769232 12.448660714285715  14.043269230769232 14.015625  C 14.043269230769232 15.568080357142854  14.748197115384617 16.89564732142857  16.158052884615383 17.998325892857142  C 17.567908653846153 19.101004464285715  19.258814102564106 19.65234375  21.230769230769234 19.65234375  C 23.20272435897436 19.65234375  24.89362980769231 19.101004464285715  26.303485576923077 17.998325892857142  Z M 45.75120192307692 25.267299107142858  C 45.91706730769231 25.397879464285715  46 25.564732142857142  46 25.767857142857142  L 46 29.94642857142857  C 46 30.14955357142857  45.91706730769231 30.31640625  45.75120192307692 30.446986607142858  C 45.58533653846153 30.577566964285715  45.37339743589744 30.642857142857142  45.11538461538461 30.642857142857142  L 42.46153846153847 30.642857142857142  L 42.46153846153847 35.51785714285714  C 42.46153846153847 36.47544642857142  42.02844551282051 37.295200892857146  41.16225961538461 37.977120535714285  C 40.29607371794872 38.65904017857143  39.25480769230769 39  38.03846153846153 39  L 4.423076923076923 39  C 3.206730769230769 39  2.165464743589744 38.65904017857143  1.2992788461538463 37.977120535714285  C 0.4330929487179487 37.295200892857146  0 36.47544642857142  0 35.51785714285714  L 0 3.4821428571428577  C 0 2.5245535714285734  0.4330929487179487 1.704799107142855  1.2992788461538463 1.0228794642857155  C 2.165464743589744 0.34095982142857184  3.206730769230769 0  4.423076923076923 0  L 38.03846153846153 0  C 39.25480769230769 0  40.29607371794872 0.34095982142857184  41.16225961538461 1.0228794642857155  C 42.02844551282051 1.704799107142855  42.46153846153847 2.5245535714285734  42.46153846153847 3.4821428571428577  L 42.46153846153847 8.357142857142858  L 45.11538461538461 8.357142857142858  C 45.37339743589744 8.357142857142858  45.58533653846153 8.422433035714285  45.75120192307692 8.553013392857142  C 45.91706730769231 8.68359375  46 8.850446428571425  46 9.053571428571427  L 46 13.232142857142858  C 46 13.435267857142854  45.91706730769231 13.602120535714285  45.75120192307692 13.732700892857142  C 45.58533653846153 13.86328125  45.37339743589744 13.928571428571427  45.11538461538461 13.928571428571427  L 42.46153846153847 13.928571428571427  L 42.46153846153847 16.714285714285715  L 45.11538461538461 16.714285714285715  C 45.37339743589744 16.714285714285715  45.58533653846153 16.779575892857142  45.75120192307692 16.91015625  C 45.91706730769231 17.040736607142858  46 17.207589285714285  46 17.410714285714285  L 46 21.589285714285715  C 46 21.79241071428571  45.91706730769231 21.959263392857142  45.75120192307692 22.08984375  C 45.58533653846153 22.220424107142858  45.37339743589744 22.285714285714285  45.11538461538461 22.285714285714285  L 42.46153846153847 22.285714285714285  L 42.46153846153847 25.07142857142857  L 45.11538461538461 25.07142857142857  C 45.37339743589744 25.07142857142857  45.58533653846153 25.13671875  45.75120192307692 25.267299107142858  Z " fill-rule="nonzero" fill="#000000" stroke="none" transform="matrix(1 0 0 1 67 19 )" />
  </g>
</svg>