<?xml version="1.0" encoding="utf-8"?>
<svg version="1.1" xmlns:xlink="http://www.w3.org/1999/xlink" width="785px" height="376px" xmlns="http://www.w3.org/2000/svg">
  <g transform="matrix(1 0 0 1 -67 -175 )">
    <path d="M 67 175  L 852 175  L 852 551  L 67 551  L 67 175  " fill-rule="nonzero" fill="#cccccc" stroke="none" />
    <path d="M 93 201  L 826 201  L 826 525  L 93 525  L 93 201  " fill-rule="nonzero" fill="#ffffff" stroke="none" />
    <path d="M 503.4 287.8  C 487.608 287.8  475.2 275.392  475.2 259.6  C 475.2 243.80800000000002  487.608 231.4  503.4 231.4  C 519.192 231.4  531.6 243.80800000000002  531.6 259.6  C 531.6 275.392  519.192 287.8  503.4 287.8  " fill-rule="nonzero" fill="#cccccc" stroke="none" />
    <path d="M 103 516  L 103 348.25  L 281.5 272  L 531.4 428.3464968152866  L 674.2 317.75  L 817 428.3464968152866  L 817 516  L 103 516  " fill-rule="nonzero" fill="#169bd5" stroke="none" />
  </g>
</svg>