<?xml version="1.0" encoding="utf-8"?>
<svg version="1.1" xmlns:xlink="http://www.w3.org/1999/xlink" width="264px" height="230px" xmlns="http://www.w3.org/2000/svg">
  <g transform="matrix(1 0 0 1 -368 -188 )">
    <path d="M 368 188  L 632 188  L 632 418  L 368 418  L 368 188  " fill-rule="nonzero" fill="#cccccc" stroke="none" />
    <path d="M 384 204  L 616 204  L 616 402  L 384 402  L 384 204  " fill-rule="nonzero" fill="#ffffff" stroke="none" />
    <path d="M 522.53 257  C 512.87 257  505.28 249.41  505.28 239.75  C 505.28 230.09  512.87 222.5  522.53 222.5  C 532.1899999999999 222.5  539.78 230.09  539.78 239.75  C 539.78 249.41  532.1899999999999 257  522.53 257  " fill-rule="nonzero" fill="#cccccc" stroke="none" />
    <path d="M 390 396  L 390 293.7  L 445 247.2  L 522 298.77272727272725  L 566 275.1  L 610 298.77272727272725  L 610 396  L 390 396  " fill-rule="nonzero" fill="#169bd5" stroke="none" />
  </g>
</svg>