<?xml version="1.0" encoding="utf-8"?>
<svg version="1.1" xmlns:xlink="http://www.w3.org/1999/xlink" width="24px" height="18px" xmlns="http://www.w3.org/2000/svg">
  <g transform="matrix(1 0 0 1 0 -3 )">
    <path d="M 23.566451612903226 2.4848484848484853  C 23.855483870967745 2.7676767676767673  24.000000000000007 3.1111111111111107  24 3.515151515151515  C 24.000000000000007 3.9191919191919173  23.855483870967745 4.262626262626261  23.566451612903226 4.545454545454545  L 12.356129032258066 15.515151515151514  L 10.250322580645161 17.575757575757574  C 9.961290322580647 17.858585858585858  9.610322580645164 18  9.19741935483871 18  C 8.784516129032259 18  8.433548387096774 17.858585858585858  8.144516129032258 17.575757575757574  L 6.038709677419354 15.515151515151514  L 0.43354838709677423 10.030303030303031  C 0.14451612903225822 9.747474747474746  0 9.404040404040401  0 9  C 0 8.595959595959595  0.14451612903225822 8.252525252525253  0.43354838709677423 7.969696969696971  L 2.539354838709677 5.909090909090909  C 2.8283870967741938 5.626262626262625  3.179354838709678 5.484848484848483  3.5922580645161295 5.484848484848484  C 4.005161290322581 5.484848484848483  4.356129032258065 5.626262626262625  4.64516129032258 5.909090909090909  L 9.19741935483871 10.378787878787879  L 19.354838709677416 0.4242424242424243  C 19.64387096774194 0.14141414141414077  19.994838709677424 0  20.40774193548387 0  C 20.820645161290322 0  21.171612903225807 0.14141414141414077  21.460645161290323 0.4242424242424243  L 23.566451612903226 2.4848484848484853  Z " fill-rule="nonzero" fill="#ffffff" stroke="none" transform="matrix(1 0 0 1 0 3 )" />
  </g>
</svg>