<?xml version="1.0" encoding="utf-8"?>
<svg version="1.1" xmlns:xlink="http://www.w3.org/1999/xlink" width="13px" height="13px" viewBox="868 600  13 13" xmlns="http://www.w3.org/2000/svg">
  <path d="M 874.5 600  C 878.14 600  881 602.86  881 606.5  C 881 610.14  878.14 613  874.5 613  C 870.86 613  868 610.14  868 606.5  C 868 602.86  870.86 600  874.5 600  Z " fill-rule="nonzero" fill="#ffffff" stroke="none" />
  <path d="M 874.5 600.5  C 877.86 600.5  880.5 603.14  880.5 606.5  C 880.5 609.86  877.86 612.5  874.5 612.5  C 871.14 612.5  868.5 609.86  868.5 606.5  C 868.5 603.14  871.14 600.5  874.5 600.5  Z " stroke-width="1" stroke="#797979" fill="none" />
  <path d="M 874.5 609.75  C 872.68 609.75  871.25 608.32  871.25 606.5  C 871.25 604.68  872.68 603.25  874.5 603.25  C 876.32 603.25  877.75 604.68  877.75 606.5  C 877.75 608.32  876.32 609.75  874.5 609.75  " fill-rule="nonzero" fill="#797979" stroke="none" />
</svg>